<svg width="24" height="25" viewBox="0 0 24 25" fill="none" xmlns="http://www.w3.org/2000/svg">
<path d="M19.9922 5.44287C20.4766 5.44287 20.8828 5.61084 21.2109 5.94678C21.5391 6.28271 21.7031 6.69287 21.7031 7.17725V18.5913C21.7031 19.0601 21.5391 19.4624 21.2109 19.7983C20.8828 20.1343 20.4766 20.3022 19.9922 20.3022H4.00781C3.52344 20.3022 3.11719 20.1343 2.78906 19.7983C2.46094 19.4624 2.29688 19.0601 2.29688 18.5913V7.17725C2.29688 6.69287 2.46094 6.28271 2.78906 5.94678C3.11719 5.61084 3.52344 5.44287 4.00781 5.44287H19.9922ZM19.9922 7.17725H4.00781V18.5913H19.9922V7.17725ZM12 8.88818C12.7188 8.88818 13.3867 9.06396 14.0039 9.41553C14.6211 9.76709 15.1094 10.2554 15.4688 10.8804C15.8281 11.5054 16.0078 12.1733 16.0078 12.8843C16.0078 13.5952 15.8281 14.2593 15.4688 14.8765C15.1094 15.4937 14.6211 15.9819 14.0039 16.3413C13.3867 16.7007 12.7188 16.8804 12 16.8804C11.2812 16.8804 10.6133 16.7007 9.99609 16.3413C9.37891 15.9819 8.89062 15.4976 8.53125 14.8882C8.17188 14.2788 7.99219 13.6108 7.99219 12.8843C7.99219 12.1577 8.17188 11.4897 8.53125 10.8804C8.89062 10.271 9.37891 9.78662 9.99609 9.42725C10.6133 9.06787 11.2812 8.88818 12 8.88818ZM12 10.5991C11.5938 10.5991 11.2148 10.7007 10.8633 10.9038C10.5117 11.1069 10.2305 11.3843 10.0195 11.7358C9.80859 12.0874 9.70312 12.4702 9.70312 12.8843C9.70312 13.2983 9.80859 13.6812 10.0195 14.0327C10.2305 14.3843 10.5117 14.6616 10.8633 14.8647C11.2148 15.0679 11.5938 15.1694 12 15.1694C12.4062 15.1694 12.7852 15.0679 13.1367 14.8647C13.4883 14.6616 13.7695 14.3843 13.9805 14.0327C14.1914 13.6812 14.2969 13.2983 14.2969 12.8843C14.2969 12.4702 14.1914 12.0874 13.9805 11.7358C13.7695 11.3843 13.4883 11.1069 13.1367 10.9038C12.7852 10.7007 12.4062 10.5991 12 10.5991ZM19.9922 2.60693V4.31787H12V2.60693H19.9922Z" fill="#222222"/>
</svg>
