<svg width="16" height="24" viewBox="0 0 16 24" fill="none" xmlns="http://www.w3.org/2000/svg">
<path d="M0.569288 0C0.2397 0 0 0.2397 0 0.569288V23.4307C0 23.7603 0.2397 24 0.569288 24H14.4419C14.7715 24 15.0112 23.7603 15.0112 23.4307V0.569288C15.0112 0.2397 14.7715 0 14.4419 0L0.569288 0ZM2.99625 2.99625H11.985V17.9775H2.99625V2.99625ZM7.49064 19.4757C8.32959 19.4757 8.98876 20.1348 8.98876 20.9738C8.98876 21.8127 8.32959 22.4719 7.49064 22.4719C6.65169 22.4719 5.99251 21.8127 5.99251 20.9738C5.99251 20.1348 6.65169 19.4757 7.49064 19.4757Z" fill="black"/>
</svg>
