<svg width="36" height="32" viewBox="0 0 36 32" fill="none" xmlns="http://www.w3.org/2000/svg">
<path d="M7.5 7C7.01875 7 6.625 7.45 6.625 8V9.38125L16.0586 18.2312C17.1906 19.2937 18.8148 19.2937 19.9469 18.2312L29.375 9.38125V8C29.375 7.45 28.9813 7 28.5 7H7.5ZM6.625 13.2625V24C6.625 24.55 7.01875 25 7.5 25H28.5C28.9813 25 29.375 24.55 29.375 24V13.2625L21.6094 20.55C19.5094 22.5187 16.4852 22.5187 14.3906 20.55L6.625 13.2625ZM4 8C4 5.79375 5.56953 4 7.5 4H28.5C30.4305 4 32 5.79375 32 8V24C32 26.2062 30.4305 28 28.5 28H7.5C5.56953 28 4 26.2062 4 24V8Z" fill="#EB5353"/>
</svg>
