<svg width="21" height="22" viewBox="0 0 21 22" fill="none" xmlns="http://www.w3.org/2000/svg">
<path d="M9.89209 3.66162C11.0249 3.66162 12.0731 3.95459 13.0366 4.54053C13.9871 5.0874 14.7358 5.84261 15.2827 6.80615C15.8426 7.78271 16.1226 8.84391 16.1226 9.98975C16.1226 10.6929 16.0151 11.3732 15.8003 12.0308C15.5854 12.6883 15.2697 13.2905 14.853 13.8374L17.9585 17.0015L17.0015 17.9585L13.9351 14.8335C13.3752 15.3153 12.7469 15.6831 12.0503 15.937C11.3537 16.1909 10.6343 16.3179 9.89209 16.3179C8.7723 16.3179 7.72412 16.0314 6.74756 15.4585C5.81006 14.8986 5.06787 14.1434 4.521 13.1929C3.94808 12.2033 3.66162 11.1356 3.66162 9.98975C3.66162 8.84391 3.94808 7.78271 4.521 6.80615C5.06787 5.84261 5.81006 5.0874 6.74756 4.54053C7.72412 3.95459 8.7723 3.66162 9.89209 3.66162ZM9.89209 5.02881C9.00667 5.02881 8.18962 5.25016 7.44092 5.69287C6.69222 6.13558 6.09977 6.73779 5.66357 7.49951C5.22738 8.26123 5.00928 9.09456 5.00928 9.99951C5.00928 10.9045 5.22738 11.7378 5.66357 12.4995C6.09977 13.2612 6.69222 13.8634 7.44092 14.3062C8.18962 14.7489 9.00667 14.9702 9.89209 14.9702C10.7775 14.9702 11.5978 14.7489 12.353 14.3062C13.1082 13.8634 13.7039 13.2612 14.1401 12.4995C14.5763 11.7378 14.7944 10.9045 14.7944 9.99951C14.7944 9.09456 14.5763 8.26123 14.1401 7.49951C13.7039 6.73779 13.1082 6.13558 12.353 5.69287C11.5978 5.25016 10.7775 5.02881 9.89209 5.02881Z" fill="white"/>
</svg>
